<?xml version="1.0" encoding="utf-8"?>
<!-- Generator: Adobe Illustrator 21.0.0, SVG Export Plug-In . SVG Version: 6.00 Build 0)  -->
<svg version="1.1" id="图层_1" xmlns="http://www.w3.org/2000/svg" xmlns:xlink="http://www.w3.org/1999/xlink" x="0px" y="0px"
	 viewBox="0 0 282 49" style="enable-background:new 0 0 282 49;" xml:space="preserve">
<style type="text/css">
	.st0{fill:#FFFFFF;}
</style>
<g>
	<path class="st0" d="M18.9,29.9H7.2l-3.1,9.7H0L10.9,7.8h4.5l10.8,31.9h-4.3L18.9,29.9z M17.9,26.7l-1.5-4.9
		c-1.2-3.6-2.2-7.1-3.2-10.8H13c-1,3.7-2,7.2-3.2,10.8l-1.6,4.9H17.9z"/>
	<path class="st0" d="M33.9,37.2L33.9,37.2l-0.4,2.4h-3.2V5h4v9.5l-0.1,4.3c2.1-1.9,4.8-3.3,7.4-3.3c6.1,0,9.4,4.8,9.4,12
		c0,8.1-4.8,12.8-10.3,12.8C38.5,40.2,36,39.1,33.9,37.2z M46.8,27.5c0-5.2-1.7-8.7-6.2-8.7c-2,0-4.1,1.1-6.3,3.3v12.4
		c2.1,1.8,4.2,2.5,5.8,2.5C43.9,36.9,46.8,33.4,46.8,27.5z"/>
	<path class="st0" d="M55.4,27.8c0-7.9,5.2-12.4,11-12.4s11,4.6,11,12.4s-5.2,12.4-11,12.4S55.4,35.7,55.4,27.8z M73.2,27.8
		c0-5.4-2.8-9.1-6.9-9.1s-6.8,3.7-6.8,9.1s2.7,9,6.8,9S73.2,33.3,73.2,27.8z"/>
	<path class="st0" d="M83.2,31V16h4v14.5c0,4.4,1.3,6.3,4.4,6.3c2.4,0,4.1-1.2,6.4-4V16h4v23.6h-3.3l-0.3-3.7h-0.1
		c-2.2,2.6-4.6,4.3-7.8,4.3C85.4,40.2,83.2,37,83.2,31z"/>
	<path class="st0" d="M110.6,32.3V19.2h-3.5v-3l3.7-0.2l0.5-6.6h3.3V16h6.4v3.2h-6.4v13.2c0,2.9,0.9,4.6,3.7,4.6
		c0.8,0,1.9-0.3,2.7-0.6l0.8,3c-1.3,0.4-2.9,0.9-4.3,0.9C112.3,40.2,110.6,37.1,110.6,32.3z"/>
	<path class="st0" d="M155.8,30.2c2.5,4.3,6.7,7.5,12.5,8.8c-0.7,0.7-1.7,2.1-2.2,3c-5.6-1.6-9.6-4.8-12.3-9.4
		c-1.7,3.5-5.3,6.9-13.2,9.6c-0.4-0.7-1.4-2-2.3-2.7c8.3-2.6,11.5-6,12.6-9.3h-11.8v-3h12.4c0-0.4,0-0.8,0-1.2v-4h-10.4v-3h5.9
		c-0.6-1.5-1.9-3.7-3.1-5.2l2.5-1.3c1.4,1.6,2.8,3.8,3.4,5.4l-2.1,1.1h8.4c1.2-2,2.7-4.6,3.5-6.7l3.3,1.1c-1,1.9-2.3,3.9-3.4,5.6h6
		v3H155v4.1c0,0.4,0,0.7,0,1.1h12.3v3H155.8z"/>
	<path class="st0" d="M200.2,28h-12.5v10.1c0,2-0.5,2.9-1.9,3.4c-1.3,0.5-3.6,0.6-6.8,0.6c-0.2-0.9-0.8-2.3-1.3-3.2
		c2.6,0.1,5.1,0.1,5.8,0c0.7,0,1-0.2,1-0.9V28h-13.1v-3h13.1v-7.5h-10.9v-3H198v3h-10.3V25h12.5V28z"/>
	<path class="st0" d="M231.5,27c-1.5,2.7-3.3,5.2-5.5,7.4c1.1,3,2.3,4.9,3.7,4.9c0.8,0,1.2-1.6,1.3-5.6c0.7,0.7,1.7,1.4,2.5,1.7
		c-0.5,5.5-1.5,7-4.2,7c-2.5,0-4.4-2.2-5.8-5.6c-2,1.7-4.2,3.2-6.5,4.4c-0.5-0.8-1.3-1.8-2.1-2.4c2.7-1.2,5.2-3,7.5-5
		c-0.8-2.6-1.3-5.8-1.7-9.1h-7.2v4.6l5.4-1.1l0.2,2.7c-1.9,0.4-3.8,0.9-5.7,1.3v6.5c0,1.8-0.4,2.7-1.6,3.2c-1.1,0.5-3,0.6-5.6,0.6
		c-0.2-0.8-0.7-2.2-1.1-3.1c2,0.1,3.9,0.1,4.4,0c0.6,0,0.8-0.2,0.8-0.7v-6c-2.3,0.5-4.4,0.9-6.3,1.3l-0.8-3c1.9-0.3,4.4-0.8,7.1-1.3
		v-5.2h-6.6v-2.8h6.6v-4.5c-1.9,0.3-3.8,0.6-5.6,0.8c-0.2-0.7-0.6-1.9-0.9-2.5c4.5-0.7,9.7-1.7,12.9-2.8l2.1,2.5
		c-1.6,0.5-3.5,1-5.4,1.4v5.1h6.9c-0.3-2.9-0.4-6-0.4-9.1h3.1c0,3.1,0.1,6.2,0.4,9.1h9.3v2.9h-8.9c0.3,2.4,0.7,4.6,1.2,6.6
		c1.5-1.7,2.7-3.5,3.7-5.3L231.5,27z M229.8,20.2c-0.9-1.5-3-3.9-4.9-5.5l2.3-1.6c1.8,1.6,4,3.8,5,5.3L229.8,20.2z"/>
	<path class="st0" d="M244.6,13.3c-0.7,2.3-1.5,4.7-2.5,7v22h-2.9V25.8c-0.6,1-1.2,1.9-1.8,2.7c-0.3-0.8-1-2.4-1.6-3.2
		c2.5-3.2,4.7-8.1,6-12.8L244.6,13.3z M245.5,19.1h3v23.2h-3V19.1z M249.2,12.3c1.4,1.9,3.1,4.5,3.9,6.1l-2.5,1.5
		c-0.7-1.7-2.4-4.4-3.8-6.3L249.2,12.3z M264.7,38.7c0,1.6-0.4,2.5-1.4,2.9c-1,0.5-2.7,0.6-5.3,0.6c-0.1-0.8-0.6-2.1-0.9-2.8
		c1.7,0.1,3.5,0.1,3.9,0c0.6,0,0.7-0.2,0.7-0.7V16.2h-8.3v-2.7h11.3V38.7z"/>
</g>
</svg>
