<?xml version="1.0" encoding="utf-8"?>
<!-- Generator: Adobe Illustrator 21.0.0, SVG Export Plug-In . SVG Version: 6.00 Build 0)  -->
<svg version="1.1" id="图层_1" xmlns="http://www.w3.org/2000/svg" xmlns:xlink="http://www.w3.org/1999/xlink" x="0px" y="0px"
	 viewBox="0 0 250 53" enable-background="new 0 0 250 53" xml:space="preserve">
<g>
	<defs>
		<path id="SVGID_1_" d="M56,13.3c0-0.1,0-1.2-0.2-2.7c-0.5-5.4-4.7-9.3-9.7-10c-0.6-0.1-1.2-0.1-1.9-0.1c-4.1,0-24.4,0-28.5,0
			c-0.6,0-1.3,0.1-1.9,0.1c-5,0.6-9.2,4.6-9.7,10C4,12.1,4,13.2,4,13.3c0,0.8,0,1.5,0,2.3h0c0,5.4,0,19.9,0,21.9l0,0
			c0,0.8,0,1.5,0,2.3c0,0.1,0,1.2,0.2,2.7c0.5,5.4,4.7,9.3,9.7,10c0.6,0.1,1.2,0.1,1.9,0.1c4.1,0,24.4,0,28.5,0
			c0.6,0,1.3-0.1,1.9-0.1c5-0.6,9.2-4.6,9.7-10c0.2-1.5,0.2-2.6,0.2-2.7C56,34.9,56,17.3,56,13.3z"/>
	</defs>
	<clipPath id="SVGID_2_">
		<use xlink:href="#SVGID_1_"  overflow="visible"/>
	</clipPath>
	<g transform="matrix(1 0 0 1 -2.384186e-07 0)" clip-path="url(#SVGID_2_)">
		
			<image overflow="visible" width="1024" height="1024" xlink:href="626B23D169B17322.png"  transform="matrix(5.119041e-02 0 0 5.119041e-02 3.7807 0.2905)">
		</image>
	</g>
</g>
<g>
	<path fill="#FFFFFF" d="M38.1,24.8c-4.4-2.6-8.6-5-12.6-7.3c-0.4-0.2-0.8-0.4-1.2-0.4c-1.1,0-1.9,0.9-1.9,2.2c0,1.7,0,3.4,0,5.1
		l0,2.2l0,2.2c0,1.7,0,3.4,0,5.1c0,1.3,0.8,2.2,1.9,2.2c0.4,0,0.8-0.1,1.2-0.3c4-2.3,8.1-4.7,12.6-7.3c0.7-0.4,1.1-1.1,1.1-1.8
		C39.2,25.9,38.8,25.2,38.1,24.8z M33.2,26.6l-6.8,4v-7.9L33.2,26.6z"/>
	<path fill="#FFFFFF" d="M49.3,19.9c0-0.3,0-0.5,0-0.7l0-0.8c-0.1-2.8-0.8-5.1-2.3-7c-1.9-2.4-4.6-3.8-7.8-4
		c-1.2-0.1-2.4-0.2-3.6-0.2l-1.3,0l-1.6,0c-0.4,0-1.7,0-2.6,0c-1,0-2.3,0-2.6,0l-1.6,0l-1.4,0c-1.2,0-2.4,0.1-3.6,0.2
		c-3.3,0.2-6,1.6-7.9,4c-1.5,1.9-2.3,4.3-2.3,7c0,0.1-0.1,16.1,0.1,17.2c0,0.4,0.1,0.8,0.1,1.2c0.4,2.5,1.4,4.5,3,6
		c0.6,0.7,1.4,1.2,2.2,1.7c1.3,0.7,2.7,1.2,4.1,1.3c0.3,0,0.6,0.1,0.9,0.1c1.1,0.1,2.2,0.2,3.4,0.2c0.4,0,3,0,5.6,0
		c2.6,0,5.2,0,5.6,0c1.2,0,2.3-0.1,3.4-0.2c0.3,0,0.6-0.1,0.9-0.1c1.5-0.1,2.9-0.6,4.2-1.3c0.8-0.4,1.5-1,2.2-1.7
		c1.6-1.6,2.6-3.6,3-6c0.1-0.4,0.1-0.8,0.1-1.2c0.1-1.1,0.2-2.2,0.2-3.4C49.4,31.1,49.4,22.5,49.3,19.9z M45.2,34.4
		c0,0.1,0,0.2,0,0.3l0,0.1c-0.1,1-0.2,2-0.5,2.8c-0.1,0.4-0.3,0.8-0.5,1.2c0,0-0.1,0.1-0.1,0.2c-0.4,0.7-0.9,1.3-1.6,1.7
		c-0.5,0.3-1,0.5-1.6,0.7c-0.7,0.2-1.5,0.4-2.3,0.5c-0.7,0-1.7,0.1-3,0.1c-1.5,0-3.5,0-5.6,0c-1.1,0-2.2,0-3.2,0v0
		c-0.9,0-1.7,0-2.4,0c-1.3,0-2.3-0.1-3-0.1c-0.8-0.1-1.6-0.3-2.3-0.5c-0.6-0.2-1.1-0.4-1.6-0.7c-0.6-0.4-1.1-1-1.6-1.7
		c0,0-0.1-0.1-0.1-0.1c-0.2-0.4-0.4-0.8-0.5-1.2c-0.3-0.9-0.5-1.9-0.5-2.8l0-0.1c0-0.1,0-0.2,0-0.3l0-0.1c-0.1-2.4-0.1-11.8,0-14.9
		c0-0.8,0.1-1.5,0.2-2.2c0.1-0.5,0.2-1.1,0.4-1.5c0.1-0.4,0.3-0.8,0.5-1.2c0.9-1.4,2.3-2.4,4.2-2.8c0.5-0.1,1-0.2,1.6-0.3
		c2.3-0.1,6.2-0.1,8.4-0.1c2.2,0,6.2,0,8.4,0.1c0.6,0.1,1.1,0.1,1.6,0.3c1.9,0.4,3.3,1.4,4.2,2.8c0.2,0.4,0.4,0.8,0.5,1.2
		c0.2,0.5,0.3,1,0.4,1.5c0.1,0.6,0.1,1.3,0.2,2.1C45.3,22.4,45.2,34.3,45.2,34.4z"/>
</g>
<g>
	<path fill="#FFFFFF" d="M63.2,19.4c0,0,0.2,0,0.5,0.2l0.7,0.5c0.4,0.3,0.8,0.4,1.3,0.4c0.8,0,1.7-0.3,2.5-0.9
		c0.8-0.6,1.5-1.2,1.9-1.7c0.4-0.5,0.7-0.8,0.8-0.7c0.1,0.1,0.1,0.3,0.1,0.6c0,0.4-0.1,1-0.3,1.9c-0.1,0.8-0.3,1.6-0.5,2.3
		c-0.2,0.7-0.6,1.7-1.1,2.9c-0.5,1.2-1,1.8-1.5,1.8c-0.2,0-0.5-0.2-0.9-0.5c-0.4-0.4-0.8-0.9-1.2-1.6L64,21.7
		c-0.4-0.7-0.7-1.3-0.7-1.7C63.2,19.6,63.2,19.4,63.2,19.4z M75.5,25.9v11.8c0,1.5-0.1,2.9-0.1,4.2c0,1.3-0.1,2.2-0.1,2.8
		c0,0.6,0,1.1-0.1,1.5c-0.1,0.4-0.1,0.6-0.2,0.7c-0.1,0.1-0.3,0-0.6-0.2l-2.5-2c-1.6-1.1-2.4-1.8-2.4-2.1c0-0.3,0.1-0.7,0.3-1.2
		c0.2-0.7,0.5-2.3,0.8-4.8c0.3-2.5,0.6-4.5,0.7-6.3c0.1-1.7,0.2-4.5,0.2-8.2c0-3.8-0.1-6.6-0.2-8.7c-0.1-1-0.2-2-0.4-2.9
		c-0.2-1-0.3-1.8-0.5-2.5c-0.2-0.7-0.4-1.3-0.6-1.8c-0.2-0.6-0.4-1-0.6-1.3C69.1,4.7,69,4.5,69,4.4c0-0.1,0.1-0.1,0.3-0.2
		c0.2,0,0.6,0,1,0.1l2.8,0.6l2.5,0.8c0.7,0.2,1.1,0.4,1.2,0.6c0.1,0.2,0,0.6-0.2,1.2c-0.1,0.4-0.4,2-0.8,4.7l-0.1,0.7
		c0.8,0.1,1.8,0.3,3.2,0.6c1.3,0.3,2.1,0.5,2.3,0.7c0.2,0.1,0.3,0.3,0.3,0.6c0.1,0.3,0,0.6-0.2,1.2c-0.2,0.5-0.5,1.2-0.9,2.2
		c-0.4,1-0.7,1.5-1,1.5c-0.3,0-0.6-0.2-1-0.7c-0.2-0.2-0.5-0.7-1-1.3c-0.5-0.6-0.8-1.1-0.9-1.2l-1.1-1.2
		C75.5,21.2,75.5,24.8,75.5,25.9z M79.5,28.5c1.5,0.1,2.8,0.2,3.9,0.3c1.1,0,2.6-0.1,4.5-0.3c0-0.9,0.1-1.6,0.1-2.1l0.2-2.8l0-1.3
		l-3.4,1.1l-1.5,0.8l-1.6-6.4c2.2,0.3,3.6,0.3,4.4,0.2l2.2-0.3c0-1.2,0-2.2,0-3c0-0.8-0.1-2.1-0.2-4c-0.2-1.9-0.4-3.3-0.8-4.1
		c-0.4-0.8-0.7-1.4-1-1.8C86.1,4.3,86,4.1,86,4c0-0.1,0.3-0.1,0.8-0.1c0.5,0,1.4,0.2,2.6,0.4c1.2,0.3,2.2,0.5,3,0.7
		c0.8,0.2,1.2,0.4,1.3,0.6c0.1,0.2,0.1,0.5,0,1c-0.1,0.4-0.2,1.1-0.3,2.1c-0.1,1-0.2,2.4-0.3,4.3l-0.3,3.9l3-0.6
		c0.2,0,0.4-0.1,0.5-0.3c0.1-0.1,0.2-0.5,0.3-1l0.2-0.9l6.9,4c-0.5,1-0.8,1.7-1,2.2c-0.2,0.5-0.5,1.2-0.8,2.1
		c-0.3,0.9-0.5,1.4-0.5,1.7l-0.4,2c2-0.6,3.7-1.2,5.2-2l0.9,7.1c-3.4-0.1-6.3-0.1-8.5,0c-2.3,0.2-4.5,0.4-6.6,0.7
		c-0.4,1.3-0.9,2.9-1.5,4.8c-0.6,1.8-1.7,3.5-3.2,5c-1.5,1.5-3.1,2.5-4.7,3.2c-1.6,0.6-2.7,1.1-3.4,1.2l-1.7,0.4
		c-0.3,0.1-0.5,0-0.6-0.2c-0.1-0.2,0-0.4,0.3-0.6l1.4-0.8c2.6-1.5,4.5-3.3,5.7-5.4c1.3-2.1,2-3.6,2.3-4.5l0.7-2.3
		c-2.1,0.6-4.2,1.4-6.3,2.4L79.5,28.5z M96.1,27.1l0.4-6.7l-3.9,1c-0.1,1-0.1,1.7-0.1,2.2l-0.2,2.3l-0.1,2.1
		C93.7,27.6,95,27.3,96.1,27.1z M94.4,35l2,0.6c1.1,0.4,2.8,1,4.8,1.9c2.1,0.9,3.2,1.5,3.3,1.7c0.1,0.3,0.2,0.7,0.2,1.1
		c0,0.8-0.1,1.5-0.2,2l-0.4,2c-0.2,1.1-0.4,1.8-0.7,2.1c-0.3,0.3-0.5,0.5-0.7,0.5c-0.2,0-0.4-0.2-0.7-0.6l-1.9-2.8l-2.5-3.4
		c-1.2-1.7-2.1-2.8-2.8-3.3c-0.6-0.5-1.1-1-1.2-1.5C93.4,34.9,93.7,34.8,94.4,35z"/>
	<path fill="#FFFFFF" d="M126.9,28.7l-2.7,0.4c-0.6,1.1-1.1,1.7-1.7,1.7c-0.6,0-1.1-0.6-1.5-1.7c-0.3-0.7-0.5-1.7-0.6-3.1
		c-0.1-1.4-0.3-2.6-0.5-3.6c-0.2-1-0.4-1.9-0.7-2.8c-0.3-0.9-0.8-1.7-1.5-2.5c-0.7-0.8-1-1.2-1-1.4c0.1-0.2,0.6-0.2,1.6-0.3l2.7,0.2
		l1.7,0.2l5.6-0.9c-0.1-1.1-0.1-1.8-0.1-2.1l-0.2-1.6c-1.6,0.1-3.1,0.3-4.5,0.6c-1.5,0.3-2.9,0.9-4.3,1.7l-1.8-6.7
		c2.8,0.4,4.7,0.6,5.6,0.6c0.9,0,2.6-0.1,5.1-0.2c2.4-0.2,4.2-0.3,5.2-0.5c1.1-0.2,2.2-0.4,3.5-0.8c1.3-0.4,2.2-0.7,2.6-1l1.7-1
		l1.4,6.5c-0.8,0-2-0.1-3.4-0.1c-1.4-0.1-2.2-0.1-2.3-0.1l-3.2,0.2c0,0.9,0,1.5,0,1.7l-0.1,1.9l4.4-0.6c0.6-0.1,0.9-0.1,1-0.2
		c0.1-0.1,0.2-0.4,0.4-1.1l0.3-1.1l7.1,4.5c-0.4,0.5-0.8,1-1.1,1.5c-0.3,0.5-1,1.9-2.1,4.2c-1.1,2.4-1.8,4.1-2.2,5.2
		c-0.4,1.1-0.8,2-1.1,2.6c-0.4,0.7-0.9,0.9-1.4,0.6c-0.6-0.3-1.2-0.9-2.1-2l-4.1,0.3c-0.5,1.5-0.8,2.4-1,2.7l-1.1,2.4
		c1.3,0.5,2.3,0.9,3,1.2l5.9,2.6c1.7,0.8,3.5,1.5,5.2,2c1.7,0.6,3.6,1.1,5.6,1.6c2,0.5,3,0.8,3,1c0,0.2-0.1,0.4-0.6,0.8
		c-0.7,0.6-2.3,1.4-4.8,2.3c-2.5,0.9-4.1,1.2-5,0.9c-0.3-0.1-0.8-0.4-1.5-0.9l-2.4-1.7l-3.2-2.3c-0.6-0.4-1.7-1.1-3.2-2
		c-1.5-0.9-2.8-1.7-4-2.2c-1,1.1-1.8,2.1-2.5,2.8c-0.7,0.8-1.7,1.6-3,2.5c-1.2,0.9-2.5,1.8-3.8,2.5c-1.3,0.7-2.4,1.2-3.3,1.5
		c-0.9,0.3-1.8,0.6-2.6,0.8c-0.8,0.2-1.5,0.3-2,0.3c-0.5,0-0.7-0.2-0.8-0.4c-0.1-0.2,0.4-0.6,1.2-1.1c0.9-0.5,2-1.3,3.5-2.3l2.6-1.9
		c0.9-0.7,1.8-1.5,2.5-2.3c0.8-0.8,1.7-1.9,2.8-3.3c-0.7,0-1.3,0.1-2,0.1c-0.6,0-1.2,0.1-1.7,0.2c-0.5,0.1-0.8,0.1-1,0
		c-0.1-0.1-0.1-0.6,0.2-1.4c0.1-0.5,0.3-1,0.6-1.5c0.2-0.5,0.5-0.8,0.7-1c0.2-0.2,0.7-0.2,1.5-0.2l2.8,0l1.3,0
		C126,30.9,126.5,29.8,126.9,28.7z M128.3,20.3l0.1-2c-1.5,0.3-3,0.6-4.7,1l0.3,1.4C125.5,20.7,127,20.5,128.3,20.3z M124.2,24.3
		l0.1,1.7l3.5-0.5l0.2-2C126.8,23.6,125.5,23.9,124.2,24.3z M132.8,25l4.4-0.5l1.3-7.6c-1.7,0.3-3.3,0.5-5.1,0.7l-0.1,1.8
		c0.9-0.2,1.4-0.3,1.6-0.4l1.5-0.8l0.4,4.3c-1.3-0.2-2-0.2-2.4-0.2l-1.5,0.2L132.8,25z"/>
	<path fill="#FFFFFF" d="M163.6,30.9c-0.9,1-2.1,2-3.8,2.9c-1.7,0.9-2.9,1.5-3.6,1.7l-1.2,0.3c-0.5,0.1-0.7,0.2-0.8,0.1
		c-0.1-0.1-0.1-0.2,0-0.5l0.4-0.3l1.1-1.1c2.4-2.3,4.2-4.4,5.6-6.4c1.4-1.9,3.1-4.6,5.1-7.9c-1.5,0.5-2.7,0.9-3.5,1.4
		c-0.9,0.5-1.8,1.2-2.8,2.1l-2.1-7.5c2,0.5,4.1,0.5,6.2,0.1c2.1-0.4,3.4-0.8,3.8-1.2c0.4-0.3,1.1-1.2,1.9-2.6l5,4
		c-1,1.1-2.7,3.2-5.2,6.5c0.6,0.2,1.7,0.5,3.4,1.1c1.6,0.5,2.5,0.9,2.6,1.2c0.1,0.3,0.2,0.6,0.2,0.9c0,0.7-0.1,1.4-0.4,2.2
		c-0.2,0.8-0.5,1.5-0.8,2c-0.3,0.6-0.5,0.9-0.8,0.9c-0.2,0-0.5-0.3-0.9-1l-0.7-1.3c-0.5-0.9-1.4-2.2-2.7-3.9c0,0.9,0,1.7,0,2.6
		c0,0.9,0,1.4,0,1.6l0.1,5c0,1.7,0,3.5-0.1,5.6l-0.2,4.2c0,1.6-0.2,2.5-0.5,2.7c-0.3,0.2-0.8,0.1-1.4-0.5l-2.1-2.1
		c-1-0.8-1.5-1.4-1.5-1.7c0-0.1,0.1-0.3,0.2-0.7c0.1-0.4,0.3-0.9,0.5-1.5c0.2-0.6,0.4-1.6,0.6-3c0.2-1.4,0.4-2.4,0.4-3.3l0.1-2.6
		l0.1-3.2C165.2,28.8,164.4,29.8,163.6,30.9z M160.6,6c-0.1-0.1-0.1-0.2-0.1-0.4c0-0.2,0.4-0.2,1.2-0.2c0,0,0.5,0.1,1.5,0.1
		c0.9,0.1,2,0.3,3.2,0.6c1.2,0.4,1.9,0.7,2.2,1c0.3,0.3,0.4,0.5,0.5,0.8c0.1,0.3,0.1,0.7,0,1.2c-0.2,1.2-0.4,2-0.5,2.5
		c-0.1,0.5-0.2,0.8-0.4,1.1c-0.2,0.3-0.4,0.4-0.6,0.5c-0.2,0.1-0.5-0.2-1-0.9c-1.6-2-3-3.6-4.1-4.6C161.3,6.8,160.7,6.2,160.6,6z
		 M185.9,29.3c1.6,0.4,2.7,0.8,3.5,1.2c0.7,0.4,1.1,0.6,1.1,0.7c0,0.1-0.1,0.3-0.4,0.7c-0.1,0.1-0.2,0.4-0.4,0.7l-0.6,1.3
		c-0.2,0.6-0.4,1.3-0.5,2.3c-0.1,1,0,1.7,0.3,2.1c0.3,0.4,0.9,0.7,1.8,0.8c0.9,0.2,1.8,0.1,2.5,0c1-0.2,1.7-0.5,2.1-1
		c0.4-0.5,0.7-1.2,0.7-2.1c0.1-0.9,0.1-1.9,0.2-3.1c0.1-1.1,0.1-1.9,0.2-2.3c0-0.4,0.1-0.6,0.4-0.8c0.2-0.1,0.5,0.3,0.9,1.1l0.8,2.1
		c0.2,0.6,0.6,1.7,1.1,3.3c0.5,1.7,0.9,2.7,0.9,3l0.7,2.7c-2,0.9-3.9,1.4-5.9,1.6c-1.9,0.2-3.3,0.2-4.3,0.1
		c-1.2-0.1-2.4-0.4-3.5-0.9c-1.1-0.5-1.9-1.2-2.4-2c-0.5-0.8-0.7-1.6-0.8-2.4c-0.1-0.8,0-1.7,0.1-2.8c0.1-1.3,0.3-2.6,0.5-4
		c-0.8,1.8-1.5,3.4-2.3,4.6c-0.8,1.2-1.6,2.2-2.5,3c-0.9,0.8-2,1.7-3.4,2.6c-1.3,0.9-2.4,1.6-3.3,2l-2.1,1c-0.4,0.2-0.6,0.1-0.7-0.1
		c-0.1-0.2,0-0.5,0.2-0.7l1.6-1.4c3.3-3,5.6-5.6,6.8-7.9c1.2-2.3,2.1-4.1,2.5-5.5c0.5-1.4,0.8-2.6,0.9-3.7c0.2-1,0.2-2.1,0.3-3.2
		c0-1.1,0-1.8,0-2.1c0-0.7-0.1-1.3-0.3-1.8c-0.2-0.6-0.3-1-0.6-1.3c-0.2-0.3-0.3-0.6-0.4-0.8c0-0.2,0.2-0.3,0.7-0.3
		c0.5,0,1.2,0.2,2.3,0.5c1.1,0.3,2.2,0.6,3.2,0.9c-0.2,0.4-0.3,0.7-0.4,0.9c-0.1,0.2-0.2,0.8-0.3,1.8l-0.3,1.7l-0.6,4.8
		C186.5,27.3,186.2,28.2,185.9,29.3z M176.3,10.7c-0.2-0.3-0.2-0.5-0.3-0.6c0-0.1,0-0.2,0-0.3c0-0.1,0.2-0.1,0.5-0.1l1.9,0.3
		l1.8,0.2c5.1-1,7.7-1.6,7.9-1.8c0.2-0.2,0.3-0.5,0.3-1v-1l7,3.4c-0.8,3-1.3,5.2-1.4,6.5l-0.5,5.7l-0.2,3.9c-0.1,1.4-0.1,2.4,0,3
		c0.1,0.6,0,1-0.1,1.3c-0.2,0.3-0.5,0.3-1,0.1c-0.6-0.2-1.3-0.6-1.9-1.1c-0.7-0.5-1.1-0.9-1.4-1.2c-0.3-0.3-0.4-0.6-0.4-0.7
		c0-0.2,0-0.5,0.2-1c0-0.3,0.1-0.7,0.1-1.3l0.1-2.6c0,0,0-1.6,0-4.8v-2.4l-0.1-2.5c-2.4,0.4-4.8,0.9-7.2,1.3c0,3.3-0.1,5.6-0.1,6.9
		c-0.1,1.3-0.2,2.8-0.4,4.7c-0.2,1.9-0.3,3.2-0.5,3.9c-0.1,0.7-0.3,1.1-0.6,1.1c-0.3,0.1-0.6,0-1-0.3c-0.6-0.3-1.2-0.9-1.8-1.8
		c-0.7-0.8-1-1.4-1-1.6c0-0.2,0.1-0.5,0.2-0.8c0.1-0.4,0.3-0.9,0.5-1.5c0.2-0.6,0.3-1.2,0.4-1.8c0.1-0.6,0.2-1.4,0.2-2.5
		c0.1-2.3,0-4.1-0.1-5.2l-0.3-2.9C176.7,11.4,176.5,11,176.3,10.7z"/>
	<path fill="#FFFFFF" d="M219.3,28c0.3-1.3,0.4-2.3,0.4-2.9c0-0.7,0-1,0.2-1.1c0.1-0.1,0.4,0,0.8,0.1c0.3,0.2,0.8,0.6,1.4,1.2
		l1.6,1.6c0.2,0.2,0.5,0.7,1,1.3c0.5,0.6,0.7,1.1,0.6,1.3c0,0.1-0.2,0.3-0.5,0.5c-0.3,0.2-0.6,0.5-0.8,0.8c-0.2,0.3-0.9,1.2-2.1,2.7
		c-1.2,1.5-2.5,3.1-4,4.7c-1.5,1.6-3.7,3.3-6.5,5c-2.8,1.7-5.2,2.9-7.3,3.5l-1.4,0.4c-0.7,0.2-1,0.2-1.1,0c-0.1-0.2,0.1-0.5,0.6-0.9
		l0.8-0.6c4.3-3,7.6-5.8,10-8.2l1.9-2l0.3-0.3c-1.1-0.6-1.8-1.2-2.3-1.6c-0.4-0.5-0.7-0.8-0.7-0.9c0-0.2,0.1-0.5,0.2-0.9
		c0.1-0.4,0.3-1.1,0.4-2.1c0.1-1,0.2-1.8,0.2-2.2c0-0.4,0-0.9,0-1.4c0-0.3-0.2-0.9-0.5-2c-1.5,0.5-2.9,1-4,1.5
		c-1.2,0.5-2.4,1.3-3.8,2.1l-2.4-6.7c2,0.1,3.7,0.1,5.3-0.2c0-0.8-0.1-1.6-0.1-2.2c0-0.6-0.1-1.3-0.2-1.9c-0.1-0.7-0.2-1.3-0.4-2
		c-0.2-0.6-0.6-1.3-1.2-1.9c-0.6-0.6-0.8-0.9-0.8-1c0.1-0.1,0.3-0.1,0.7-0.2c0.7,0,1.7,0.1,3,0.5c1.2,0.3,2,0.6,2.5,0.8
		c0.4,0.2,0.6,0.3,0.7,0.4c0,0.1,0,0.3-0.1,0.7c-0.1,0.2-0.1,0.6-0.2,1.2l-0.2,1.3l-0.1,3.7l2.3-0.5l0-2c0-0.9,0-2.1-0.1-3.4
		c-0.1-1.3-0.2-2.5-0.3-3.6c-0.1-1.1-0.5-2.1-1.1-3.2L211,6c-0.4-0.5-0.5-0.8-0.4-0.9c0.1-0.1,0.4-0.1,0.8-0.1
		c1.5,0.1,2.8,0.4,4,0.8c1.2,0.4,2,0.7,2.3,0.9c0.3,0.2,0.6,0.4,0.6,0.5c0.1,0.2,0,0.4-0.1,0.8c-0.2,0.9-0.6,2.4-0.9,4.4
		c2.1-0.6,3.4-1.1,3.9-1.4l1.5-0.9l0.8,5.3c-0.7-0.1-1.5-0.1-2.3-0.2c-0.8,0-2.1,0.1-4,0.4l-0.3,3.1c1.8-0.5,3.2-0.9,3.9-1.2
		c0.8-0.3,1.5-0.7,2.3-1.3l1.1,6c-1.9-0.2-3.4-0.2-4.5-0.1c-1.1,0.1-2.9,0.4-5.5,0.9c1.4,0.3,2.2,0.5,2.5,0.7
		c0.3,0.1,0.4,0.2,0.5,0.3c0.1,0.1,0,0.5-0.2,1c-0.1,0.3-0.2,0.7-0.2,1.4l-0.1,2c0,0.6,0,1.3,0,2.1l0,1.4
		C218.3,30.7,219,29.3,219.3,28z M206.8,34.8c-0.1,0-0.3-0.4-0.4-0.9c-0.2-0.6-0.2-1.2-0.2-1.9c0-0.9,0.2-1.7,0.4-2.5
		c0.2-0.8,0.3-1.3,0.4-1.7c0.1-0.4,0.1-0.5,0.3-0.5c0.1,0,0.2,0.2,0.5,0.5c0.3,0.3,0.5,0.5,0.6,0.6c0.1,0.1,0.3,0.1,0.6,0.2
		c0.8,0.1,1.6-0.1,2.3-0.6c0.8-0.5,1.1-0.8,1.2-0.7c0,0,0,0.2-0.2,0.6l-0.7,1.7c-0.2,0.4-0.7,1.3-1.5,2.6c-0.8,1.3-1.5,2.1-2.1,2.4
		C207.4,34.8,207,34.9,206.8,34.8z M234.8,36.6c0.8,0.2,1.6,0.4,2.5,0.6c0.8,0.2,2.1,0.5,3.9,0.9c1.8,0.4,2.8,0.8,3,1
		c0.2,0.2,0.3,0.9,0.2,2.1c-0.1,1.1-0.2,2-0.2,2.6c0,0.6-0.2,1.2-0.4,1.6c-0.2,0.4-0.4,0.6-0.7,0.7c-0.2,0.1-0.6-0.3-1.2-0.9
		c-1.5-1.7-2.6-3-3.4-3.9c-0.8-0.9-2.2-2.1-4-3.8c-1,1.4-1.8,2.5-2.4,3.2c-0.6,0.7-1.7,1.6-3.2,2.6c-1.5,1.1-3.4,2-5.5,2.6l-1.9,0.6
		c-0.2,0.1-0.4,0-0.5-0.2c-0.1-0.2,0.1-0.5,0.6-0.9l1.3-1c0.6-0.4,1.5-1.2,2.6-2.1c1.2-1,2.2-2,3.1-2.9c0.9-0.9,1.7-2.1,2.3-3.5
		c0.7-1.4,1.1-3,1.5-4.8c0.3-1.8,0.5-3.4,0.4-4.7c0-0.9-0.1-1.7-0.3-2.3c-0.1-0.6-0.3-1.1-0.6-1.5c-0.3-0.4-0.4-0.7-0.3-0.8
		c0-0.1,0.4-0.1,1.1,0c0.5,0.1,1.1,0.3,1.7,0.5c0.6,0.3,1.3,0.5,2,0.8c0.7,0.2,1,0.5,1.1,0.6c0,0.2,0,0.5-0.2,1
		c-0.1,0.3-0.2,0.7-0.4,1.3c-0.1,0.6-0.2,1.2-0.4,1.9c-0.1,0.7-0.2,1.7-0.4,3c-0.1,1.3-0.3,2.2-0.4,2.9
		C235.5,34.3,235.2,35.3,234.8,36.6z M230.5,17l1-4.7c-0.7,0.1-1.4,0.3-2.2,0.5c-0.8,0.2-2,0.7-3.6,1.6l-1.9-6.1
		c0.9,0.1,2.1,0.2,3.6,0.4c1.5,0.1,4-0.1,7.4-0.6c3.5-0.5,5.7-1,6.8-1.5l1.8-0.8l1,6.3c-1.1-0.2-2.1-0.4-3.1-0.5
		c-1-0.1-2.5-0.2-4.4-0.1l-2.5,5l2.5-0.4c0.7-0.1,1.1-0.2,1.2-0.3c0.1-0.1,0.1-0.4,0.2-0.9l0.1-1.1l6.5,2.9
		c-0.2,0.7-0.5,1.4-0.6,2.1c-0.2,0.6-0.4,1.7-0.6,3.1c-0.3,1.4-0.4,2.3-0.4,2.9l-0.4,5.3l0,5l0,1.9c-0.1,0.2-0.2,0.4-0.3,0.5
		c-0.1,0.1-0.4,0.1-0.8,0c-0.2,0-0.8-0.3-1.6-0.6c-0.9-0.4-1.5-0.6-1.7-0.8c-0.3-0.2-0.5-0.4-0.6-0.7l0.3-1.9l0.3-4.5l-0.2-9.1
		l-8.3,1.2v8.2l-0.1,7c0,0.8,0,1.2-0.2,1.2c-0.1,0-0.4-0.1-0.9-0.3c-0.5-0.2-0.9-0.4-1.2-0.6c-0.3-0.2-0.8-0.6-1.4-1.1
		c-0.6-0.6-0.9-0.9-1-1.1c0-0.2,0-0.5,0.2-0.9c0.1-0.3,0.2-0.7,0.2-1.1c0-0.4,0.1-1.1,0.2-2.1c0.1-1,0.2-1.7,0.2-2.2l0-2
		c0-0.8,0-1.6-0.1-2.5c0-0.9-0.1-1.6-0.2-2.1c-0.1-0.5-0.2-1.1-0.4-1.9c-0.2-0.8-0.4-1.5-0.6-2c-0.3-0.5-0.4-0.8-0.3-0.9
		c0-0.1,0.5,0,1.3,0.2l1.7,0.3l1.6,0.3L230.5,17z"/>
</g>
</svg>
