<?xml version="1.0" encoding="utf-8"?>
<!-- Generator: Adobe Illustrator 17.0.0, SVG Export Plug-In . SVG Version: 6.00 Build 0)  -->
<!DOCTYPE svg PUBLIC "-//W3C//DTD SVG 1.1//EN" "http://www.w3.org/Graphics/SVG/1.1/DTD/svg11.dtd">
<svg version="1.1" id="图层_1" xmlns="http://www.w3.org/2000/svg" xmlns:xlink="http://www.w3.org/1999/xlink" x="0px" y="0px"
	 width="50px" height="50px" viewBox="0 0 50 50" enable-background="new 0 0 50 50" xml:space="preserve">
<g>
	
	<g>
		<path fill="#ffffff" d="M32.771,24.344c-1.297-0.26-0.667-0.98-0.667-0.98s1.269-2.158-0.251-3.728c-1.884-1.943-6.461,0.247-6.461,0.247
			c-1.748,0.56-1.285-0.255-1.038-1.643c0-1.635-0.543-4.402-5.2-2.768c-4.653,1.643-8.647,7.401-8.647,7.401
			c-2.778,3.826-2.41,6.783-2.41,6.783c0.694,6.528,7.415,8.32,12.642,8.744c5.5,0.445,12.922-1.956,15.173-6.891
			C38.162,26.568,34.072,24.612,32.771,24.344z M21.146,36.56c-5.459,0.263-9.873-2.562-9.873-6.322
			c0-3.764,4.414-6.783,9.873-7.043c5.463-0.26,9.885,2.063,9.885,5.82C31.031,32.775,26.609,36.304,21.146,36.56z M20.057,25.674
			c-5.491,0.663-4.856,5.972-4.856,5.972s-0.056,1.681,1.472,2.537c3.213,1.796,6.521,0.708,8.193-1.519
			C26.537,30.436,25.556,25.016,20.057,25.674z M18.672,33.125c-1.025,0.124-1.851-0.486-1.851-1.371
			c0-0.881,0.734-1.804,1.76-1.915c1.178-0.116,1.944,0.585,1.944,1.47C20.524,32.19,19.693,33.005,18.672,33.125z M21.908,30.279
			c-0.347,0.268-0.775,0.231-0.958-0.091c-0.191-0.313-0.12-0.815,0.232-1.079c0.407-0.313,0.83-0.223,1.013,0.091
			C22.379,29.521,22.248,30.003,21.908,30.279z M35.444,22.046c0.443,0,0.819-0.338,0.882-0.778
			c0.008-0.033,0.012-0.062,0.012-0.099c0.671-6.223-4.941-5.152-4.941-5.152c-0.498,0-0.898,0.416-0.898,0.935
			c0,0.511,0.4,0.927,0.898,0.927c4.03-0.918,3.141,3.241,3.141,3.241C34.539,21.634,34.945,22.046,35.444,22.046z M34.79,11.184
			c-1.94-0.469-3.935-0.065-4.494,0.046c-0.043,0.004-0.084,0.046-0.124,0.055c-0.02,0.004-0.031,0.025-0.031,0.025
			c-0.551,0.161-0.954,0.688-0.954,1.31c0,0.742,0.582,1.351,1.309,1.351c0,0,0.706-0.098,1.185-0.291
			c0.475-0.198,4.493-0.147,6.489,3.312c1.089,2.525,0.479,4.214,0.403,4.486c0,0-0.259,0.656-0.259,1.302
			c0,0.745,0.583,1.214,1.304,1.214c0.603,0,1.11-0.085,1.258-1.138h0.008C43.027,15.484,38.262,12.02,34.79,11.184z"/>
	</g>
</g>
<g>
	<path fill="#ffffff" d="M25,2c12.682,0,23,10.318,23,23S37.682,48,25,48S2,37.682,2,25S12.318,2,25,2 M25,0C11.193,0,0,11.193,0,25
		s11.193,25,25,25s25-11.193,25-25S38.807,0,25,0L25,0z"/>
</g>
</svg>
