<?xml version="1.0" encoding="utf-8"?>
<!-- Generator: Adobe Illustrator 17.0.0, SVG Export Plug-In . SVG Version: 6.00 Build 0)  -->
<!DOCTYPE svg PUBLIC "-//W3C//DTD SVG 1.1//EN" "http://www.w3.org/Graphics/SVG/1.1/DTD/svg11.dtd">
<svg version="1.1" id="图层_1" xmlns="http://www.w3.org/2000/svg" xmlns:xlink="http://www.w3.org/1999/xlink" x="0px" y="0px"
	 width="50px" height="50px" viewBox="0 0 50 50" enable-background="new 0 0 50 50" xml:space="preserve">
<g>
	<path fill="#ffffff" d="M25,2c12.682,0,23,10.318,23,23S37.682,48,25,48S2,37.682,2,25S12.318,2,25,2 M25,0C11.193,0,0,11.193,0,25
		s11.193,25,25,25s25-11.193,25-25S38.807,0,25,0L25,0z"/>
</g>
<g>
	<g>
		<path fill="#ffffff" fill-rule="evenodd" clip-rule="evenodd" d="M30.899,19.596c0.383,0,0.761,0.029,1.136,0.071
			c-1.021-4.816-6.103-8.394-11.904-8.394c-6.485,0-11.798,4.478-11.798,10.165c0,3.283,1.767,5.978,4.721,8.069l-1.18,3.596
			l4.124-2.095c1.476,0.296,2.66,0.6,4.132,0.6c0.37,0,0.737-0.019,1.101-0.048c-0.231-0.799-0.364-1.636-0.364-2.505
			C20.868,23.834,25.295,19.596,30.899,19.596z M24.555,16.355c0.888,0,1.477,0.592,1.477,1.492c0,0.896-0.588,1.496-1.477,1.496
			c-0.884,0-1.771-0.6-1.771-1.496C22.784,16.947,23.671,16.355,24.555,16.355z M16.299,19.343c-0.884,0-1.776-0.6-1.776-1.496
			c0-0.899,0.892-1.492,1.776-1.492c0.884,0,1.473,0.592,1.473,1.492C17.771,18.742,17.183,19.343,16.299,19.343z M41.666,28.912
			c0-4.779-4.72-8.674-10.021-8.674c-5.613,0-10.034,3.895-10.034,8.674c0,4.787,4.421,8.674,10.034,8.674
			c1.175,0,2.36-0.3,3.54-0.6l3.236,1.795l-0.887-2.987C39.902,33.995,41.666,31.608,41.666,28.912z M28.392,27.416
			c-0.587,0-1.18-0.592-1.18-1.196c0-0.595,0.593-1.195,1.18-1.195c0.892,0,1.477,0.6,1.477,1.195
			C29.869,26.825,29.284,27.416,28.392,27.416z M34.881,27.416c-0.583,0-1.172-0.592-1.172-1.196c0-0.595,0.589-1.195,1.172-1.195
			c0.884,0,1.477,0.6,1.477,1.195C36.358,26.825,35.766,27.416,34.881,27.416z"/>
	</g>
</g>
</svg>
